<svg width="285" height="188" viewBox="0 0 285 188" fill="none" xmlns="http://www.w3.org/2000/svg">
<g clip-path="url(#clip0_30_105)">
<path d="M158.121 64.7569H117.913C116.997 64.758 116.118 65.1225 115.47 65.7704C114.823 66.4183 114.458 67.2967 114.457 68.2129V157.575L113.996 157.715L104.133 160.736C103.665 160.878 103.16 160.83 102.729 160.6C102.297 160.371 101.974 159.98 101.831 159.512L72.4913 63.6763C72.3485 63.2088 72.3972 62.7038 72.6266 62.2722C72.856 61.8406 73.2474 61.5177 73.7148 61.3746L88.9145 56.7204L132.979 43.2326L148.179 38.5785C148.41 38.5073 148.653 38.4824 148.894 38.5053C149.135 38.5282 149.369 38.5983 149.583 38.7117C149.797 38.8252 149.986 38.9796 150.14 39.1663C150.294 39.353 150.41 39.5682 150.48 39.7996L157.98 64.2961L158.121 64.7569Z" fill="#F2F2F2"/>
<path d="M166.895 64.2965L157.856 34.7727C157.705 34.2808 157.46 33.8233 157.132 33.4264C156.805 33.0296 156.403 32.7011 155.949 32.4597C155.494 32.2184 154.997 32.0689 154.485 32.0198C153.973 31.9707 153.456 32.0231 152.964 32.1738L131.594 38.7149L87.5323 52.205L66.1624 58.7484C65.1697 59.0533 64.3385 59.7395 63.8512 60.6566C63.3639 61.5737 63.2604 62.6466 63.5634 63.6399L94.4558 164.54C94.702 165.342 95.1986 166.044 95.8729 166.543C96.5471 167.042 97.3635 167.311 98.2023 167.312C98.5904 167.312 98.9764 167.254 99.3473 167.139L113.996 162.656L114.457 162.513V162.031L113.996 162.172L99.2114 166.699C98.3351 166.966 97.3887 166.875 96.5797 166.445C95.7707 166.015 95.1652 165.282 94.8959 164.407L64.0059 63.504C63.8725 63.0701 63.826 62.6142 63.8691 62.1623C63.9121 61.7105 64.0439 61.2715 64.2568 60.8707C64.4698 60.4698 64.7597 60.1149 65.11 59.8262C65.4603 59.5376 65.8641 59.3209 66.2983 59.1885L87.6682 52.6451L131.73 39.1573L153.1 32.6138C153.43 32.5133 153.772 32.4621 154.116 32.4618C154.855 32.4634 155.574 32.7017 156.168 33.1416C156.762 33.5815 157.199 34.1999 157.416 34.9063L166.413 64.2966L166.556 64.7574H167.035L166.895 64.2965Z" fill="#3F3D56"/>
<path d="M91.6575 61.4501C91.2134 61.4498 90.7811 61.3072 90.424 61.0432C90.0669 60.7792 89.8039 60.4077 89.6734 59.9832L86.7057 50.2898C86.626 50.0294 86.5983 49.7558 86.6243 49.4848C86.6503 49.2137 86.7294 48.9504 86.8571 48.7099C86.9849 48.4694 87.1588 48.2564 87.3689 48.0831C87.5789 47.9099 87.8211 47.7797 88.0815 47.7L128.618 35.2896C129.144 35.1291 129.712 35.1839 130.198 35.4418C130.683 35.6997 131.047 36.1397 131.208 36.6653L134.176 46.3588C134.336 46.8847 134.282 47.4527 134.024 47.9382C133.766 48.4238 133.326 48.7872 132.8 48.9487L92.2633 61.3591C92.067 61.4194 91.8628 61.45 91.6575 61.4501Z" fill="#6E0699"/>
<path d="M107.203 42.3582C109.748 42.3582 111.811 40.2951 111.811 37.7501C111.811 35.2052 109.748 33.1421 107.203 33.1421C104.658 33.1421 102.595 35.2052 102.595 37.7501C102.595 40.2951 104.658 42.3582 107.203 42.3582Z" fill="#6E0699"/>
<path d="M107.203 40.6675C108.815 40.6675 110.121 39.3611 110.121 37.7495C110.121 36.138 108.815 34.8315 107.203 34.8315C105.592 34.8315 104.285 36.138 104.285 37.7495C104.285 39.3611 105.592 40.6675 107.203 40.6675Z" fill="white"/>
<path d="M202.241 166.134H124.364C123.845 166.134 123.347 165.927 122.98 165.56C122.613 165.193 122.407 164.695 122.406 164.176V70.8627C122.407 70.3435 122.613 69.8457 122.98 69.4785C123.347 69.1114 123.845 68.9049 124.364 68.9043H202.241C202.76 68.9049 203.258 69.1114 203.625 69.4786C203.992 69.8457 204.198 70.3435 204.199 70.8627V164.176C204.198 164.695 203.992 165.193 203.625 165.56C203.258 165.927 202.76 166.134 202.241 166.134Z" fill="#E6E6E6"/>
<path d="M166.413 64.2964H117.913C116.875 64.2979 115.879 64.711 115.145 65.4452C114.411 66.1795 113.998 67.1749 113.996 68.2132V162.172L114.457 162.031V68.2132C114.458 67.297 114.823 66.4186 115.471 65.7707C116.118 65.1228 116.997 64.7583 117.913 64.7572H166.556L166.413 64.2964ZM208.692 64.2964H117.913C116.875 64.2979 115.879 64.711 115.145 65.4452C114.411 66.1795 113.998 67.1749 113.996 68.2132V173.738C113.998 174.776 114.411 175.772 115.145 176.506C115.879 177.24 116.875 177.653 117.913 177.655H208.692C209.73 177.653 210.726 177.24 211.46 176.506C212.194 175.772 212.607 174.776 212.609 173.738V68.2132C212.607 67.1749 212.194 66.1795 211.46 65.4452C210.726 64.711 209.73 64.2979 208.692 64.2964ZM212.148 173.738C212.147 174.654 211.782 175.532 211.134 176.18C210.487 176.828 209.608 177.193 208.692 177.194H117.913C116.997 177.193 116.118 176.828 115.471 176.18C114.823 175.532 114.458 174.654 114.457 173.738V68.2132C114.458 67.297 114.823 66.4186 115.471 65.7707C116.118 65.1228 116.997 64.7583 117.913 64.7572H208.692C209.608 64.7583 210.487 65.1228 211.134 65.7707C211.782 66.4186 212.147 67.297 212.148 68.2132V173.738Z" fill="#3F3D56"/>
<path d="M184.5 74.4344H142.105C141.556 74.4338 141.029 74.2151 140.64 73.8264C140.251 73.4376 140.032 72.9105 140.032 72.3608V62.223C140.032 61.6733 140.251 61.1462 140.64 60.7574C141.029 60.3687 141.556 60.15 142.105 60.1494H184.5C185.049 60.15 185.576 60.3687 185.965 60.7574C186.354 61.1462 186.573 61.6733 186.573 62.223V72.3608C186.573 72.9105 186.354 73.4376 185.965 73.8264C185.576 74.2151 185.049 74.4338 184.5 74.4344Z" fill="#6E0699"/>
<path d="M163.302 60.8406C165.847 60.8406 167.91 58.7775 167.91 56.2326C167.91 53.6876 165.847 51.6245 163.302 51.6245C160.757 51.6245 158.694 53.6876 158.694 56.2326C158.694 58.7775 160.757 60.8406 163.302 60.8406Z" fill="#6E0699"/>
<path d="M163.302 59.0393C164.853 59.0393 166.109 57.7826 166.109 56.2325C166.109 54.6824 164.853 53.4258 163.302 53.4258C161.752 53.4258 160.496 54.6824 160.496 56.2325C160.496 57.7826 161.752 59.0393 163.302 59.0393Z" fill="white"/>
</g>
<ellipse cx="142.5" cy="184.5" rx="128" ry="3.5" fill="#F2F2F2"/>
<defs>
<clipPath id="clip0_30_105">
<rect width="149.217" height="145.655" fill="white" transform="translate(63.3914 32)"/>
</clipPath>
</defs>
</svg>
